<?xml version="1.0" encoding="UTF-8"?>
<svg width="98px" height="107px" viewBox="0 0 98 107" version="1.1" xmlns="http://www.w3.org/2000/svg" xmlns:xlink="http://www.w3.org/1999/xlink">
    <!-- Generator: Sketch 52.4 (67378) - http://www.bohemiancoding.com/sketch -->
    <title>无数据</title>
    <desc>Created with Sketch.</desc>
    <g id="181203-表单模板中心" stroke="none" stroke-width="1" fill="none" fill-rule="evenodd">
        <g id="无数据" transform="translate(-671.000000, -332.000000)" fill-rule="nonzero">
            <g id="其他/无数据" transform="translate(671.000000, 332.000000)">
                <g id="无数据">
                    <g id="Group-14">
                        <g id="Group-3" transform="translate(3.531532, 0.000000)">
                            <path d="M11.6266673,5.29436683 C9.41752831,5.29436683 7.62666731,7.08522783 7.62666731,9.29436683 L7.62666731,77.7570349 C7.62666731,79.9661739 9.41752831,81.7570349 11.6266673,81.7570349 L62.5208325,81.7570349 C64.7299715,81.7570349 66.5208325,79.9661739 66.5208325,77.7570349 L66.5208325,9.29436683 C66.5208325,7.08522783 64.7299715,5.29436683 62.5208325,5.29436683 L11.6266673,5.29436683 Z" id="Rectangle-Copy-3" stroke="#BDC9D6" stroke-width="2" fill="#F1F5F9" transform="translate(37.073750, 43.525701) rotate(-9.000000) translate(-37.073750, -43.525701) "></path>
                            <g id="Group-2" transform="translate(12.385114, 11.536998)">
                                <rect id="Rectangle" stroke="#BDC9D6" stroke-width="2" fill="#FFFFFF" x="1" y="1" width="58.8941652" height="73.3298097" rx="5"></rect>
                                <path d="M32.9935189,73.3309583 C38.4984087,73.3099176 42.9544765,68.8408605 42.9544765,63.3310329 L42.9544765,12 C42.9544765,6.49017247 38.4984087,2.02111536 32.9935189,2.0000746 C33.0017432,2.00002489 33.0099734,2 33.0182094,2 L55.8816389,2 C57.5384931,2 58.8816389,3.34314575 58.8816389,5 L58.8816389,70.3310329 C58.8816389,71.9878872 57.5384931,73.3310329 55.8816389,73.3310329 L33.0182094,73.3310329 C33.0099734,73.3310329 33.0017432,73.331008 32.9935189,73.3309583 Z" id="Combined-Shape" fill="#F1F5F9"></path>
                                <g id="Group" transform="translate(10.825629, 14.251586)" stroke="#C2CED9" stroke-linecap="round" stroke-linejoin="round" stroke-width="2">
                                    <path d="M0.338300918,0.848308668 L29.4321798,0.848308668" id="Line-2"></path>
                                    <path d="M0.338300918,15.0716173 L31.4619853,15.0716173" id="Line-2-Copy"></path>
                                    <path d="M0.338300918,22.5320208 L16.576745,22.5320208" id="Line-2-Copy-2"></path>
                                    <path d="M0.338300918,36.104174 L21.3129578,36.104174" id="Line-2-Copy-3"></path>
                                    <path d="M0.338300918,42.8905124 L16.576745,42.8905124" id="Line-2-Copy-4"></path>
                                </g>
                            </g>
                        </g>
                        <g id="Group-5" transform="translate(56.504505, 50.404959)">
                            <g id="Group-4" stroke="#BECAD6" stroke-width="2">
                                <ellipse id="Oval" fill="#F1F5F9" cx="14.7207207" cy="14.5626868" rx="14.7207207" ry="14.5626868"></ellipse>
                                <path d="M26.0300014,24.7593939 L33.0596846,31.7136102" id="Path-3" stroke-linecap="round"></path>
                            </g>
                            <path d="M1.04254454,14.552363 C1.04254454,7.0675996 7.17598956,1 14.7419774,1 C19.8578501,1 24.3187612,3.774119 26.6714503,7.88469792 C24.1824376,5.35279579 20.7016796,3.7799719 16.8495825,3.7799719 C9.28359462,3.7799719 3.1501496,9.8475715 3.1501496,17.3323349 C3.1501496,19.756147 3.79334985,22.0313443 4.92010957,24 C2.52039821,21.558938 1.04254454,18.2263834 1.04254454,14.552363 Z" id="Combined-Shape" fill="#FFFFFF"></path>
                            <path d="M12.9921756,24.4942216 C19.4117683,24.4942216 24.6158765,19.4658848 24.6158765,13.2631169 C25.0500371,14.345152 25.2816724,15.1312282 25.2816724,16.3662104 C25.2816724,21.6033498 20.9900595,25.8488902 15.6960868,25.8488902 C13.6820288,25.8488902 11.8130498,25.2344021 10.2702703,24.1846021 C11.1433796,24.387016 12.0548204,24.4942216 12.9921756,24.4942216 Z" id="Combined-Shape" fill="#FFFFFF"></path>
                        </g>
                        <ellipse id="Oval-2" fill="#F1F5F9" cx="49" cy="103.46281" rx="49" ry="3.53719008"></ellipse>
                    </g>
                </g>
            </g>
        </g>
    </g>
</svg>